inDegrees=no
num_controls=7
num_derivatives=13
num_iterations=422
num_multipliers=7
num_parameters=0
num_slacks=7
num_states=26
objective=5.666112
objective_accelerations=0.858174
objective_balance=0.078931
objective_effort=0.470103
objective_height=4.196326
objective_ligament=0.062579
solver_duration=5368.478343
status=Solve_Succeeded
success=true
DataType=double
version=3
OpenSimVersion=4.4-2022-07-23-0e9fedc
endheader
time	/jointset/ground_pelvis/pelvis_tilt/value	/jointset/ground_pelvis/pelvis_tx/value	/jointset/ground_pelvis/pelvis_ty/value	/jointset/hip_l/hip_flexion_l/value	/jointset/hip_l/hip_adduction_l/value	/jointset/hip_l/hip_rotation_l/value	/jointset/back/lumbar_extension/value	/jointset/patellofemoral_l/patellar_flexion_l/value	/jointset/knee_l/knee_flexion_l/value	/jointset/knee_l/knee_adduction_l/value	/jointset/knee_l/knee_rotation_l/value	/jointset/ankle_l/ankle_angle_l/value	/jointset/subtalar_l/subtalar_angle_l/value	/jointset/ground_pelvis/pelvis_tilt/speed	/jointset/ground_pelvis/pelvis_tx/speed	/jointset/ground_pelvis/pelvis_ty/speed	/jointset/hip_l/hip_flexion_l/speed	/jointset/hip_l/hip_adduction_l/speed	/jointset/hip_l/hip_rotation_l/speed	/jointset/back/lumbar_extension/speed	/jointset/patellofemoral_l/patellar_flexion_l/speed	/jointset/knee_l/knee_flexion_l/speed	/jointset/knee_l/knee_adduction_l/speed	/jointset/knee_l/knee_rotation_l/speed	/jointset/ankle_l/ankle_angle_l/speed	/jointset/subtalar_l/subtalar_angle_l/speed	/forceset/tau_hip_flexion_l	/forceset/tau_hip_adduction_l	/forceset/tau_hip_rotation_l	/forceset/tau_knee_flexion_l	/forceset/tau_ankle_angle_l	/forceset/tau_subtalar_angle_l	/forceset/tau_lumbar_extension	lambda_cid13_p0	lambda_cid13_p1	lambda_cid13_p2	lambda_cid13_p3	lambda_cid13_p4	lambda_cid13_p5	lambda_cid14_p0	/jointset/ground_pelvis/pelvis_tilt/accel	/jointset/ground_pelvis/pelvis_tx/accel	/jointset/ground_pelvis/pelvis_ty/accel	/jointset/hip_l/hip_flexion_l/accel	/jointset/hip_l/hip_adduction_l/accel	/jointset/hip_l/hip_rotation_l/accel	/jointset/back/lumbar_extension/accel	/jointset/patellofemoral_l/patellar_flexion_l/accel	/jointset/knee_l/knee_flexion_l/accel	/jointset/knee_l/knee_adduction_l/accel	/jointset/knee_l/knee_rotation_l/accel	/jointset/ankle_l/ankle_angle_l/accel	/jointset/subtalar_l/subtalar_angle_l/accel	gamma_cid13_p0	gamma_cid13_p1	gamma_cid13_p2	gamma_cid13_p3	gamma_cid13_p4	gamma_cid13_p5	gamma_cid14_p0
1	-0.3961923583292929	-0.02449571665220261	0.4530571436309601	2.094265969790336	-0.2340015409109045	0.08847968840146417	-0.4344239223391433	1.88011006163489	1.880110061634974	0.1325327557827554	0.1661357288236763	0.430322074813301	0.1479291738086925	-0.009718776377844679	0.001112468857114602	-0.00255379234671331	0.01352370127991099	-1.612308460656558e-05	0.003552845925210803	0.001721727525798158	0.004974003235460592	0.004974003235459612	-0.002108481262755725	0.0005921109515122666	0.001429438360196425	0.0005281052800262974	-0.3103377069326121	0.005715847678101188	-0.04401178652862355	-0.46348041406553	0.004096119482744403	0.02021742439796791	0.2834299837060711	-47.69518816300378	7.426105413009292	-10.55915769078499	34.33502262904474	-756.8968933829348	-57.7003671005889	-0.03343972325432275	-0.3673829135141898	-0.6828062830123166	2.387708533026329	-5.948944690065002	-0.1279291333439807	-0.9635385444843355	-0.07996663554548114	-7.192720227297976	-7.192720227298103	-1.215443765464091	0.1057832985453985	-1.231927520782161	-0.7196032521912626	1.726526320271704e-09	4.132551261631299e-09	6.769655044341956e-09	-5.186310711991233e-09	-4.660178958454454e-10	1.586410447449356e-08	-1.030105710911395e-09
1.01	-0.3963072205996244	-0.02451859765989317	0.4531511011976811	2.09410266131662	-0.2340076757692502	0.08847085441291641	-0.4344111636797602	1.879800333280443	1.879800333280568	0.1324476054365227	0.1661466720433861	0.4302753772980029	0.147899377331333	-0.01320953082206756	-0.005677573814082153	0.02135329700715576	-0.04624601621018633	-0.001215171258655437	-0.00532044686733566	0.0008101426711831725	-0.06691950138762941	-0.06691950138763043	-0.01492257194337312	0.00159834904681283	-0.01075157629991777	-0.006485214340234384	-0.3106227822520153	0.005475154172833528	-0.04393699694815131	-0.4634556814282892	0.004179768520929578	0.02034267094460076	0.2836839807011843	-47.65970289737693	7.336572391609006	-10.51184415514419	34.14191425165836	-757.0957094064141	-57.90103828913163	-0.03343287724656673	-0.3332971737885682	-0.6754396764500372	2.393405155662134	-6.000076032015913	-0.1165292895328979	-0.8493401960982858	-0.0997336627435073	-7.187643066559011	-7.187643066558803	-1.314529486610851	0.09834325156532298	-1.208584871449786	-0.6918478758852613	9.180690578809416e-09	-6.467682818392601e-08	-8.514996039840562e-08	-4.533124896890446e-09	-1.326302551128321e-08	-2.432446969380352e-07	1.680752504510227e-08
1.02	-0.3964556655071846	-0.02460904637775132	0.4534843688617616	2.093339837517411	-0.2340259284353454	0.08837326438649477	-0.4344081167193192	1.878771674382416	1.878771674382502	0.1322342866300209	0.1661677374813288	0.4301073903495337	0.1477995173459854	-0.01643530382274331	-0.01240107317640364	0.04530822712487343	-0.1063793638416068	-0.002439684636607038	-0.01419836163824039	-0.0002206122763445969	-0.1388121054804893	-0.1388121054804894	-0.02774217331397758	0.002616554603833283	-0.02282844827297777	-0.01348459631817541	-0.3109078575709432	0.005234460667556388	-0.04386220736761561	-0.4634309487910757	0.004263417559009396	0.02046791749116847	0.2839379776967701	-47.6271795461322	7.242865877540376	-10.45850564043399	34.02815358343113	-757.3060616706591	-58.10711809494167	-0.03346995459978665	-0.3143866248054051	-0.6694976212369597	2.3972766857961	-6.021670718329685	-0.1330221741246904	-0.9644629401560617	-0.1038006541278242	-7.19254012125187	-7.192540121251821	-1.216545903461525	0.1081767908895382	-1.211098983370568	-0.7168157237272538	2.083630941173068e-08	-1.347661662224454e-07	-1.746675492306069e-07	-1.626710258464674e-08	-2.863542246302257e-08	-5.058543788702241e-07	3.439531070932078e-08
1.03	-0.3966348811421035	-0.02476625050025503	0.4540574508567944	2.091973681801425	-0.2340565555758942	0.08818684694080768	-0.434415701141609	1.877024106837307	1.877024106837377	0.1318928070037086	0.1661989912286988	0.4298191926822101	0.1476297757643599	-0.01934422712112392	-0.01901366961088089	0.06931917605807247	-0.1669344658352203	-0.003690655379967358	-0.02308599465775448	-0.001292409822082365	-0.210699918940055	-0.2106999189400572	-0.04055134379654723	0.003631829531661985	-0.03478916487760927	-0.02045765288368429	-0.3114545039088349	0.005293854691371214	-0.0436678158142942	-0.4634131751507969	0.004815987945778801	0.02040861269822013	0.2844852780642965	-47.45974397972045	7.237948934539594	-10.45617262496089	33.60340811373779	-757.7090592308016	-58.09933356937539	-0.0335123797554062	-0.2695984245727788	-0.6532340940648902	2.40464572349856	-6.084826214386251	-0.1218354677811938	-0.8510275544533183	-0.1082899506113224	-7.186689770596971	-7.18668977059722	-1.312710376342261	0.09793167796452916	-1.185273097329085	-0.6865764837205081	3.253480023010487e-08	-2.048685650629337e-07	-2.641606275871903e-07	-2.812747989998328e-08	-4.403409889778543e-08	-7.684997840730216e-07	5.198054693382709e-08
1.04	-0.3968412766584447	-0.02498879927500644	0.4548709706864443	2.089999495810729	-0.234099832612526	0.08791153035055538	-0.4344338876684466	1.874557703595144	1.874557703595078	0.1314233141214202	0.1662403434921724	0.4294120448291714	0.1473904984449303	-0.02187128010820633	-0.02547000362594315	0.0933957940479747	-0.2279854188091757	-0.004969663856913301	-0.03197819054145617	-0.002341033200356948	-0.2825792448911315	-0.2825792448911363	-0.05334482450659481	0.004636257828892437	-0.04661848541501967	-0.0273917438795127	-0.3120011502460635	0.005353248715205336	-0.04347342426090046	-0.4633954015105516	0.005368558332412228	0.02034930790524031	0.2850325784324913	-47.29526117421084	7.228849351547227	-10.44780454513117	33.2562675895671	-758.1245612147413	-58.09681461839783	-0.03359744409864394	-0.2380125625464386	-0.6382451373536604	2.410410497136784	-6.120840914398113	-0.138629720841987	-0.9653755129936958	-0.09916582063472237	-7.190842619553954	-7.190842619554019	-1.213407948957099	0.1060074647700635	-1.184819769925612	-0.7090226097911045	4.551787909404925e-08	-2.736044628507369e-07	-3.495802788970254e-07	-4.588854573639361e-08	-5.970928315219789e-08	-1.015007436222753e-06	6.803689624573143e-08
1.05	-0.3970709653355133	-0.02527503143511951	0.4559255109571567	2.087412566790683	-0.2341560466309957	0.08754722961328262	-0.4344623238457158	1.871372719243223	1.871372719243263	0.130826063336388	0.1662916774106365	0.4288871188502047	0.1470820242073503	-0.02399244152718405	-0.03174016230017514	0.1175163946979689	-0.2894638196509715	-0.006278779239570361	-0.04087998245844734	-0.003334169808835789	-0.3543995115227716	-0.354399511522771	-0.06609994249272493	0.005629513086634032	-0.05835746175490147	-0.03430162671127301	-0.3124581827517804	0.005206478403612632	-0.043152961173168	-0.4632849156530967	0.006295947955833119	0.02041634144498721	0.2855503167985251	-46.97582686290425	7.107223248899896	-10.38662771871713	32.64439547862645	-758.3567657029554	-58.29682037837861	-0.03369513402805017	-0.1880543333226793	-0.6159742652259355	2.413489802518314	-6.1708442888829	-0.1278399877608304	-0.8522589230234341	-0.0975827130668435	-7.174918560049126	-7.174918560048348	-1.305705441285649	0.09597021535469755	-1.167053805568473	-0.6816434582163469	5.85411013344177e-08	-3.422976574806436e-07	-4.348726356116496e-07	-6.383400808908747e-08	-7.539310827597441e-08	-1.261010783589577e-06	8.404546784161695e-08
1.06	-0.3973196429071097	-0.02562287978852951	0.4572213782250881	2.084208952838329	-0.2342255093114395	0.08709397537842405	-0.4345003304154454	1.86747007224997	1.867470072250053	0.1301014330278296	0.1663529410134947	0.4282450796599237	0.1467045166737852	-0.02566905901610832	-0.03779324228532931	0.1416611934914863	-0.3513224052852656	-0.007619396253578561	-0.049768890054315	-0.00425511170176823	-0.4261117731576011	-0.4261117731575949	-0.07882072919261256	0.006622194707517505	-0.07004112767673001	-0.04119840307695204	-0.3129152152571547	0.005059708092066848	-0.04283249808556108	-0.4631744297956508	0.007223337579200233	0.02048337498478922	0.2860680551649138	-46.65951879849106	6.981596774582231	-10.31961837217988	32.10807643243765	-758.6039662267054	-58.50161263163249	-0.03383287874201161	-0.1491037765363988	-0.5948293995378081	2.415250125841472	-6.196877872897823	-0.1449300471123836	-0.9627986487691486	-0.08472687752477759	-7.169241620191756	-7.169241620191787	-1.206541691708563	0.10589273739862	-1.17375768631425	-0.7064013165748122	7.025993196652108e-08	-4.034872948712426e-07	-5.142319064296536e-07	-7.973206373712372e-08	-8.907985695885258e-08	-1.47877142467667e-06	9.847705397644601e-08
1.07	-0.3975827678090637	-0.02603007980884588	0.458758744494056	2.080385055107834	-0.2343085229691386	0.0865518222847316	-0.4345470646499037	1.862851001619416	1.862851001619459	0.1292499129778611	0.1664240639525836	0.4274863411995631	0.1462580899966796	-0.0268686496848671	-0.04360085671449237	0.1658098203658779	-0.4135066346330817	-0.008986325774226705	-0.05865614300373325	-0.005071669782674381	-0.4976689990035952	-0.4976689990036036	-0.09147282122576374	0.007595640588747328	-0.0817088314002314	-0.0480838786738465	-0.3133359168495571	0.005104440651267405	-0.04239432461315955	-0.4629351150711137	0.008541158333424373	0.02044894938478891	0.2865951258884757	-46.20693574597323	6.890069988540867	-10.2739190117467	31.3445161703375	-758.6831446764296	-58.58345873009801	-0.03398160924947581	-0.09228071507391658	-0.5668610318235324	2.414312253797117	-6.236605559411533	-0.1329435165213648	-0.8508152816421067	-0.07711046002815469	-7.143982742104653	-7.143982742107175	-1.292907938464048	0.09224420285990198	-1.163622614523091	-0.679018428855479	8.19093800662699e-08	-4.642778068767721e-07	-5.932755875723056e-07	-9.552121477321009e-08	-1.026603781714702e-07	-1.69502979415314e-06	1.128247579058997e-07
1.08	-0.3978552674182944	-0.02649398268689904	0.4605375256888812	2.075937833065056	-0.2344052797444543	0.08592097132883864	-0.434601362502505	1.857517354795342	1.857517354795417	0.1282721990115301	0.1665047560883905	0.4266108565221298	0.1457429290140849	-0.02754400047475185	-0.04913381383268852	0.1899441786626342	-0.4759872677284362	-0.01036801977412581	-0.06750846249771512	-0.005767835329731037	-0.5690270118616284	-0.5690270118616511	-0.1040595124327068	0.008536034044969807	-0.0933903710899103	-0.05494526417509024	-0.3137566184423686	0.005149173210522764	-0.0419561511410796	-0.4626958003465382	0.009858979087764759	0.02041452378493726	0.2871221966116418	-45.75767970342547	6.794526317365992	-10.22232545574357	30.65421236773265	-758.7815519874887	-58.67054454877091	-0.03416653795304853	-0.0442558007621244	-0.539897937344151	2.412396410314442	-6.256158622405439	-0.147882942962724	-0.9558119576820558	-0.06064837075410331	-7.129399022599536	-7.129399022599487	-1.19346152646688	0.09928225239732918	-1.176524879549085	-0.7015832974446412	9.161565851962923e-08	-5.181060500991048e-07	-6.618873578759536e-07	-1.098602998415074e-07	-1.140314296466853e-07	-1.869740536326369e-06	1.241512287109631e-07
